{"title":"Grown Ups 2 2013 READNFO TS XViD AC3-FREE","uid":8734127,"size":768172283,"categoryP":"video","categoryS":"movies","magnet":"?xt=urn:btih:faf2f5cf641fa2444f4ace899974ba2401c7992f&amp;dn=Grown+Ups+2+2013+READNFO+TS+XViD+AC3-FREE&amp;tr=udp%3A%2F%2Ftracker.openbittorrent.com%3A80&amp;tr=udp%3A%2F%2Fopen.demonii.com%3A1337&amp;tr=udp%3A%2F%2Ftracker.coppersurfer.tk%3A6969&amp;tr=udp%3A%2F%2Fexodus.desync.com%3A6969","seeders":126,"leechers":0,"uploader":"xxxlavalxxx","files":-1,"time":1374652597,"description":" &lt;a href=&quot;http://www.imdb.com/title/tt2191701/&quot; rel=&quot;nofollow&quot; target=&quot;_NEW&quot;&gt;http://www.imdb.com/title/tt2191701/&lt;/a&gt;\n\n\n\nAfter moving his family back to his hometown to be with his friends and their kids, Lenny finds out that between old bullies, new bullies, schizo bus drivers, drunk cops on skis, and 400 costumed party crashers sometimes crazy follows you. \n\n\n\nDirector:\n Dennis Dugan \n\nWriters:\n Fred Wolf, Adam Sandler\n\nStars:\n Adam Sandler, Kevin James, Chris Rock \n\nGenres:\n  Comedy \n\nCountry:\n USA \n\nLanguage:\n English \n\n\n\n\n\nSource  aoe / A FRiEND\n\n Notes done NOTHING to vid, all i did was sync line audio to it and remux\n\n Media Info\n Grown Ups 2 2013 READNFO TS XViD AC3-FREE.avi\n Format                                   : AVI\n Format/Info                              : Audio Video Interleave\n File size                                : 733 MiB\n Duration                                 : 1h 34mn\n Overall bit rate                         : 1 086 Kbps\n Writing library                          : VirtualDub build 32661/release\n\n Video\n ID                                       : 0\n Format                                   : MPEG-4 Visual\n Format profile                           : Advanced Simple@L5\n Format settings, BVOP                    : 2\n Format settings, QPel                    : No\n Format settings, GMC                     : No warppoints\n Format settings, Matrix                  : Default (H.263)\n Codec ID                                 : XVID\n Codec ID/Hint                            : XviD\n Duration                                 : 1h 34mn\n Bit rate                                 : 885 Kbps\n Width                                    : 640 pixels\n Height                                   : 352 pixels\n Display aspect ratio                     : 16:9\n Frame rate                               : 25.000 fps\n Color space                              : YUV\n Chroma subsampling                       : 4:2:0\n Bit depth                                : 8 bits\n Scan type                                : Progressive\n Compression mode                         : Lossy\n Bits/(Pixel*Frame)                       : 0.157\n Stream size                              : 597 MiB (81%)\n Writing library                          : XviD 1.2.1 (UTC 2008-12-04)\n\n Audio\n ID                                       : 1\n Format                                   : AC-3\n Format/Info                              : Audio Coding 3\n Mode extension                           : CM (complete main)\n Format settings, Endianness              : Big\n Codec ID                                 : 2000\n Duration                                 : 1h 34mn\n Bit rate mode                            : Constant\n Bit rate                                 : 192 Kbps\n Channel(s)                               : 2 channels\n Channel positions                        : Front: L R\n Sampling rate                            : 48.0 KHz\n Bit depth                                : 16 bits\n Compression mode                         : Lossy\n Delay relative to video                  : 1s 400ms\n Stream size                              : 129 MiB (18%)\n Alignment                                : Split accross interleaves\n Interleave, duration                     : 40 ms (1.00 video frame)\n Interleave, preload duration             : 500 ms\n\n\n\n\nscreens\n\n\n    &lt;a href=&quot;\thttp://addpix.net/viewer.php?file=29683192390926853957.jpg&quot; rel=&quot;nofollow&quot; target=&quot;_NEW&quot;&gt;\thttp://addpix.net/viewer.php?file=29683192390926853957.jpg&lt;/a&gt;\n    &lt;a href=&quot;\thttp://addpix.net/viewer.php?file=02663269948205018624.jpg&quot; rel=&quot;nofollow&quot; target=&quot;_NEW&quot;&gt;\thttp://addpix.net/viewer.php?file=02663269948205018624.jpg&lt;/a&gt;\n    &lt;a href=&quot;\thttp://addpix.net/viewer.php?file=95747393518557604956.jpg&quot; rel=&quot;nofollow&quot; target=&quot;_NEW&quot;&gt;\thttp://addpix.net/viewer.php?file=95747393518557604956.jpg&lt;/a&gt;\n    &lt;a href=&quot;\thttp://addpix.net/viewer.php?file=03709594718663803657.jpg&quot; rel=&quot;nofollow&quot; target=&quot;_NEW&quot;&gt;\thttp://addpix.net/viewer.php?file=03709594718663803657.jpg&lt;/a&gt;\n    &lt;a href=&quot;\thttp://addpix.net/viewer.php?file=95782363912152775910.jpg&quot; rel=&quot;nofollow&quot; target=&quot;_NEW&quot;&gt;\thttp://addpix.net/viewer.php?file=95782363912152775910.jpg&lt;/a&gt;","torrent":{"xt":"urn:btih:faf2f5cf641fa2444f4ace899974ba2401c7992f","amp;dn":"Grown+Ups+2+2013+READNFO+TS+XViD+AC3-FREE","amp;tr":["udp%3A%2F%2Ftracker.openbittorrent.com%3A80","udp%3A%2F%2Fopen.demonii.com%3A1337","udp%3A%2F%2Ftracker.coppersurfer.tk%3A6969","udp%3A%2F%2Fexodus.desync.com%3A6969"],"infoHash":"faf2f5cf641fa2444f4ace899974ba2401c7992f","infoHashBuffer":{"type":"Buffer","data":[250,242,245,207,100,31,162,68,79,74,206,137,153,116,186,36,1,199,153,47]},"announce":[],"urlList":[]}}